<svg xmlns="http://www.w3.org/2000/svg" width="240" height="52" fill="none" viewBox="0 0 240 52"><path fill="#fff" d="M26.9973 5.6801e-07C21.855 0.000537989 16.8283 1.52594 12.5529 4.3833C8.27754 7.24066 4.94549 11.3017 2.9781 16.0527C1.01072 20.8038 0.496382 26.0316 1.50012 31.075C2.50387 36.1184 4.98061 40.7509 8.61716 44.3867C12.2537 48.0225 16.8867 50.4982 21.9303 51.5009C26.9739 52.5036 32.2016 51.9882 36.9523 50.0198C41.703 48.0514 45.7633 44.7185 48.6197 40.4426C51.4762 36.1666 53.0005 31.1396 53 25.9973C53 22.5828 52.3274 19.2018 51.0206 16.0473C49.7137 12.8928 47.7983 10.0266 45.3837 7.61251C42.969 5.19836 40.1025 3.28353 36.9477 1.97737C33.7929 0.6712 30.4118 -0.000713159 26.9973 5.6801e-07ZM27.7228 49.6959C15.8327 50.4621 6.96134 41.3136 5.10284 35.6919C5.16262 35.6457 5.29576 35.5669 5.29576 35.5669C8.16774 34.7518 10.9528 36.2163 14.1101 38.8736C16.3951 40.7946 20.9517 46.0577 26.5381 48.5819C26.9586 48.822 27.4007 49.0221 27.8586 49.1796C27.8586 49.2448 27.7581 49.5682 27.7228 49.704V49.6959ZM36.1241 47.9352C35.7355 48.0792 32.8282 49.003 30.5703 48.3781C30.1383 48.2504 29.7253 48.1064 29.3014 47.9597C26.2093 46.8185 23.3564 44.9246 20.661 42.8216C17.2619 40.1697 14.792 36.7353 10.2164 34.5861C10.2486 34.5113 10.2715 34.4328 10.2844 34.3524C12.8221 34.6513 15.9903 34.9664 20.1801 37.5287C21.7913 38.515 28.4156 42.4195 29.3014 42.8542C31.0902 43.719 32.9456 44.4387 34.8497 45.0062C35.921 45.3197 37.0097 45.5701 38.1103 45.7561C38.1103 45.7561 39.0015 45.8648 39.2705 45.8919L39.4416 46.2941C38.3748 46.9188 37.2632 47.4637 36.1159 47.9243L36.1241 47.9352ZM44.202 42.5689C41.5854 44.8214 37.863 44.335 35.3198 43.7264C31.4262 42.7863 25.2094 39.2649 23.5792 38.1889C23.6172 38.1427 23.7205 37.9933 23.7585 37.9498C26.7989 39.0367 39.0531 42.1179 47.0169 38.0694C47.074 38.1319 47.1256 38.1998 47.1854 38.2596C47.2452 38.3194 47.3892 38.4525 47.4571 38.5123C46.515 39.9733 45.4242 41.3327 44.202 42.5689ZM42.713 37.9199C43.0448 37.5884 43.2974 37.1862 43.4521 36.7434L44.5715 33.2465H42.8435C41.4605 35.3441 38.1401 35.0262 35.3932 33.3144C31.0621 30.6191 28.057 28.9671 25.9376 28.8367C25.6553 28.8168 25.3717 28.8305 25.0926 28.8774C25.4241 32.1977 26.0762 34.2546 26.4512 35.2028C26.6142 35.6186 26.7229 35.8223 26.7229 35.8223L26.3262 35.7408C26.2079 35.5941 26.0982 35.4408 25.9974 35.2816C25.4839 34.4937 24.4649 32.6623 23.658 29.535C23.0252 30.0298 22.5999 30.7429 22.4652 31.5347C22.4403 31.7649 22.4276 31.9961 22.4271 32.2276L23.3102 34.2872L24.4568 36.9527C24.0492 36.8005 23.533 36.5831 22.9379 36.3386C18.8623 34.6431 10.5914 31.2114 4.32575 34.135C3.13824 30.8295 2.68807 27.3043 3.00679 23.8065C3.32552 20.3087 4.40543 16.9229 6.17082 13.8865C7.93622 10.8501 10.3444 8.23657 13.2265 6.22912C16.1086 4.22167 19.3948 2.86888 22.855 2.26558C26.3151 1.66228 29.8653 1.82308 33.2567 2.7367C36.6481 3.65032 39.7986 5.29465 42.4874 7.55442C45.1763 9.81419 47.3383 12.6347 48.822 15.8183C50.3057 19.0018 51.0751 22.4714 51.0763 25.9837C51.0763 28.1574 50.6253 31.2956 50.2449 32.2629C48.9271 35.2517 46.1909 37.0206 42.7212 37.9064"/><path fill="#fff" d="M39.9128 23.1826C40.2059 21.2547 40.8398 19.3943 41.7849 17.6886C39.5884 16.3901 37.0921 15.6848 34.5408 15.642C31.9896 15.5991 29.471 16.2201 27.2321 17.444C26.8533 18.149 26.5317 18.8831 26.2702 19.6395V19.6666C25.4198 19.9013 24.5993 20.2332 23.8248 20.6556C23.0998 21.763 22.656 23.0305 22.5319 24.3483C22.4078 25.666 22.6073 26.9942 23.113 28.2174C23.2545 28.563 23.4207 28.8981 23.6102 29.22L23.3982 27.9158C24.0703 27.4846 24.8582 27.2694 25.6562 27.299C27.9902 27.299 31.1855 28.682 34.6226 31.179L34.5411 30.9589C33.3307 27.6212 33.4278 23.9492 34.8128 20.6801C33.6538 20.0383 32.3911 19.6052 31.0822 19.4003L31.1366 19.221C32.706 19.3546 34.2426 19.7457 35.685 20.3785C34.6718 23.377 34.7294 26.6341 35.848 29.5949C37.9421 30.3955 39.8199 31.675 41.3312 33.331L41.5268 33.244C39.9487 30.1448 39.3841 26.6281 39.9128 23.1907"/><path fill="#fff" d="M15.8296 18.06C15.9845 19.7256 16.2671 22.5732 16.2671 22.5732H16.7589C16.7589 22.5732 17.0469 19.7256 17.2072 18.06C17.2996 17.052 17.699 16.6091 18.419 16.4298C19.0141 16.2858 20.8345 16.0304 20.8345 16.0304V15.5549C20.8345 15.5549 18.9325 15.3511 18.313 15.1446C18.0267 15.0824 17.7644 14.9392 17.5572 14.7321C17.35 14.5249 17.2068 14.2625 17.1447 13.9762C16.9708 13.335 16.7589 11.3352 16.7589 11.3352H16.2834C16.2834 11.3352 16.0606 13.335 15.8785 13.9762C15.6476 14.8131 15.1748 14.987 14.7129 15.1446C14.0988 15.3511 12.1914 15.5549 12.1914 15.5549V16.0304C12.1914 16.0304 14.0146 16.3021 14.6096 16.4406C15.3242 16.6173 15.7264 17.0601 15.8296 18.0709"/><path fill="#fff" d="M35.4043 13.3137L34.994 15.1152C33.7609 14.073 32.2275 13.4515 30.6168 13.3409L30.5488 13.0692C31.3205 12.7269 32.1613 12.569 33.0046 12.6081C33.8478 12.6473 34.6704 12.8824 35.407 13.2947"/><path fill="#fff" fill-rule="evenodd" d="M95.3333 1.3H66V0H95.3333V1.3Z" clip-rule="evenodd"/><path fill="#fff" d="M66.6782 13.1308H71.216C74.1922 13.1308 76.4611 15.0756 76.4611 18.2727C76.4611 21.4846 74.1922 23.3999 71.216 23.3999H66.6782V23.1053L67.518 22.8106C67.6506 22.7517 67.7242 22.6043 67.7242 22.457V14.0737C67.7242 13.9117 67.6506 13.7791 67.5032 13.7201L66.6782 13.4255V13.1308ZM70.9361 13.8085H69.7574V22.7222H70.9361C72.9398 22.7222 74.2806 21.0131 74.2806 18.2727C74.2806 15.5323 72.9398 13.8085 70.9361 13.8085Z"/><path fill="#fff" d="M81.1298 16.1364C82.9715 16.1364 84.1649 17.3445 84.1649 19.1862C84.1796 19.3335 84.1502 19.5251 84.1207 19.6429H79.627C79.6418 21.3962 80.3195 22.5749 81.6602 22.5749C82.4411 22.5749 83.3693 22.0887 83.8702 21.2783L84.2533 21.5583C83.6492 22.6927 82.4558 23.5325 80.9972 23.5325C79.0819 23.5325 77.7117 22.0739 77.7117 19.8639C77.7117 17.6392 79.0819 16.1364 81.1298 16.1364ZM81.1446 16.7405C80.3342 16.7405 79.7596 17.6834 79.6565 19.0978L82.1906 18.9357C82.3232 18.9063 82.3527 18.8031 82.3527 18.5232C82.3527 17.5361 81.8665 16.7405 81.1446 16.7405Z"/><path fill="#fff" d="M89.9482 16.1364C91.6573 16.1364 92.8949 17.5508 92.8949 19.7019C92.8949 21.9855 91.5247 23.5178 89.4767 23.5178C88.8285 23.5178 88.1655 23.3557 87.7971 23.1053V25.9488C87.7971 26.1109 87.8708 26.2435 87.9739 26.2877L88.6959 26.5381V26.7886H85.1451V26.5381L85.8671 26.2877C85.9702 26.2435 86.0291 26.1109 86.0291 25.9488V17.5213C86.0291 17.3298 85.9702 17.1972 85.8671 17.1825L85.1451 17.0351V16.7847L87.7971 16.1659V17.1677C88.2391 16.5637 89.02 16.1364 89.9482 16.1364ZM89.2115 17.0499C88.7253 17.0499 88.1655 17.3003 87.7971 17.6981V21.9708C87.9592 22.5159 88.4159 22.8695 88.9758 22.8695C90.1692 22.8695 90.9943 21.6319 90.9943 19.8345C90.9943 18.1254 90.2723 17.0499 89.2115 17.0499Z"/><path fill="#fff" d="M97.0614 16.1364C98.7705 16.1364 99.7429 17.0204 99.7429 18.8326V22.3833C99.7429 22.5454 99.7871 22.6927 99.9197 22.7369L100.642 22.9579V23.1937L98.0191 23.5325V22.4717C97.636 23.12 96.7373 23.5325 95.868 23.5325C94.7335 23.5325 93.9232 22.8106 93.9232 21.7498C93.9232 20.5859 94.8809 19.9081 96.5899 19.4809L97.9896 19.142V18.5085C97.9896 17.3445 97.6507 16.7405 96.8993 16.7405C96.3542 16.7405 96.1627 17.0941 96.0006 17.7276L95.8238 18.3759C95.7501 18.5969 95.5733 18.7295 95.2197 18.5969C94.7925 18.4348 94.5125 18.1107 94.5125 17.7718C94.5125 17.0204 95.6175 16.1364 97.0614 16.1364ZM97.9749 19.6577L97.1056 19.9081C96.2216 20.1881 95.7207 20.689 95.7207 21.4699C95.7207 22.2949 96.1774 22.6633 96.752 22.6633C97.194 22.6633 97.7097 22.3833 97.9896 21.9413L97.9749 19.6577Z"/><path fill="#fff" d="M104.957 23.3999H101.406V23.1495L102.113 22.9137C102.275 22.8548 102.29 22.7369 102.29 22.6043V17.5213C102.29 17.374 102.275 17.2119 102.128 17.1825L101.406 17.0351V16.7847L104.058 16.1511V18.3169C104.308 17.1677 105.016 16.1364 106.003 16.1364C107.078 16.1364 107.506 17.1972 106.902 17.9486C106.71 18.1843 106.636 18.1991 106.43 18.0075C106.003 17.6392 105.723 17.4919 105.384 17.4919C104.529 17.4919 104.058 18.5821 104.058 19.8345V22.6043C104.058 22.7369 104.087 22.8401 104.235 22.899L104.957 23.1495V23.3999Z"/><path fill="#fff" d="M110.387 14.3684V16.2543H112.465V16.9025H110.387V21.6319C110.387 22.4717 110.711 22.7075 111.065 22.7075C111.522 22.7075 112.037 22.3981 112.435 21.8971L112.745 22.2213C112.096 23.0611 111.419 23.5325 110.446 23.5325C109.695 23.5325 108.634 23.2673 108.634 21.4109V16.9025H107.721V16.4311C108.899 16.1217 109.091 15.8417 109.665 14.3684H110.387Z"/><path fill="#fff" d="M116.327 16.1364C118.036 16.1364 119.008 17.0204 119.008 18.8326V22.3833C119.008 22.5454 119.053 22.6927 119.185 22.7369L119.907 22.9579V23.1937L117.285 23.5325V22.4717C116.902 23.12 116.003 23.5325 115.134 23.5325C113.999 23.5325 113.189 22.8106 113.189 21.7498C113.189 20.5859 114.146 19.9081 115.855 19.4809L117.255 19.142V18.5085C117.255 17.3445 116.916 16.7405 116.165 16.7405C115.62 16.7405 115.428 17.0941 115.266 17.7276L115.089 18.3759C115.016 18.5969 114.839 18.7295 114.485 18.5969C114.058 18.4348 113.778 18.1107 113.778 17.7718C113.778 17.0204 114.883 16.1364 116.327 16.1364ZM117.24 19.6577L116.371 19.9081C115.487 20.1881 114.986 20.689 114.986 21.4699C114.986 22.2949 115.443 22.6633 116.018 22.6633C116.46 22.6633 116.975 22.3833 117.255 21.9413L117.24 19.6577Z"/><path fill="#fff" d="M120.657 16.7847L123.279 16.1511V17.1972C123.766 16.6079 124.591 16.1364 125.401 16.1364C126.049 16.1364 126.86 16.4163 127.213 17.3151C127.861 16.5489 128.716 16.1364 129.467 16.1364C130.499 16.1364 131.471 16.7847 131.471 18.1843V22.6043C131.471 22.7369 131.486 22.8548 131.633 22.899L132.355 23.1495V23.3999H128.966V23.1495L129.526 22.9137C129.659 22.8548 129.703 22.7517 129.703 22.6043V18.7147C129.703 17.6539 129.408 17.153 128.613 17.153C128.127 17.153 127.626 17.4182 127.331 17.7718C127.375 17.9633 127.405 18.1696 127.405 18.3906V22.6043C127.405 22.7369 127.419 22.8548 127.567 22.899L128.171 23.1495V23.3999H124.871L124.856 23.1495L125.445 22.9137C125.593 22.8401 125.637 22.7517 125.637 22.6043V18.7147C125.637 17.6539 125.327 17.153 124.546 17.153C124.06 17.153 123.604 17.4182 123.324 17.7571V22.6043C123.324 22.7369 123.353 22.8401 123.5 22.899L124.104 23.1495V23.3999H120.657V23.1495L121.379 22.9137C121.526 22.8548 121.556 22.7517 121.556 22.6043V17.5213C121.556 17.374 121.541 17.2119 121.394 17.1825L120.657 17.0351V16.7847Z"/><path fill="#fff" d="M136.696 16.1364C138.538 16.1364 139.731 17.3445 139.731 19.1862C139.746 19.3335 139.717 19.5251 139.687 19.6429H135.194C135.208 21.3962 135.886 22.5749 137.227 22.5749C138.008 22.5749 138.936 22.0887 139.437 21.2783L139.82 21.5583C139.216 22.6927 138.022 23.5325 136.564 23.5325C134.648 23.5325 133.278 22.0739 133.278 19.8639C133.278 17.6392 134.648 16.1364 136.696 16.1364ZM136.711 16.7405C135.901 16.7405 135.326 17.6834 135.223 19.0978L137.757 18.9357C137.89 18.9063 137.919 18.8031 137.919 18.5232C137.919 17.5361 137.433 16.7405 136.711 16.7405Z"/><path fill="#fff" d="M145.647 16.1364C146.664 16.1364 147.622 16.7994 147.622 18.2433V22.6043C147.622 22.7369 147.651 22.8548 147.798 22.899L148.52 23.1495V23.3999H145.102V23.1495L145.677 22.9137C145.839 22.8401 145.868 22.7517 145.868 22.6043V18.7147C145.868 17.6539 145.574 17.153 144.793 17.153C144.307 17.153 143.761 17.4035 143.467 17.7571V22.6043C143.467 22.7369 143.496 22.8401 143.644 22.899L144.233 23.1495V23.3999H140.8V23.1495L141.522 22.9137C141.669 22.8548 141.699 22.7517 141.699 22.6043V17.5213C141.699 17.374 141.684 17.2119 141.537 17.1825L140.8 17.0351V16.7847L143.423 16.1659V17.1972C143.924 16.5784 144.837 16.1364 145.647 16.1364Z"/><path fill="#fff" d="M151.926 14.3684V16.2543H154.003V16.9025H151.926V21.6319C151.926 22.4717 152.25 22.7075 152.603 22.7075C153.06 22.7075 153.576 22.3981 153.974 21.8971L154.283 22.2213C153.635 23.0611 152.957 23.5325 151.985 23.5325C151.233 23.5325 150.172 23.2673 150.172 21.4109V16.9025H149.259V16.4311C150.438 16.1217 150.629 15.8417 151.204 14.3684H151.926Z"/><path fill="#fff" d="M158.587 16.1364C160.827 16.1364 162.3 17.6097 162.3 19.8345C162.3 22.0445 160.827 23.5325 158.587 23.5325C156.362 23.5325 154.889 22.0445 154.889 19.8345C154.889 17.6097 156.362 16.1364 158.587 16.1364ZM158.587 16.7552C157.526 16.7552 156.804 17.9191 156.804 19.8345C156.804 21.7351 157.512 22.9137 158.587 22.9137C159.663 22.9137 160.385 21.7351 160.385 19.8345C160.385 17.9191 159.663 16.7552 158.587 16.7552Z"/><path fill="#fff" d="M171.418 13.1308L175.145 22.3244C175.278 22.6338 175.351 22.7369 175.587 22.8106L176.427 23.1053V23.3999H171.874V23.1053L172.847 22.8253C173.127 22.7369 173.097 22.5749 173.024 22.3686L172.081 19.9229H168.942L167.911 22.3686C167.837 22.5749 167.823 22.7517 168.088 22.8253L169.075 23.1053V23.3999H165.848V23.1053L166.777 22.7959C166.983 22.7369 167.042 22.6338 167.189 22.3097L171.064 13.1308H171.418ZM170.563 15.9891L169.193 19.2893H171.83L170.563 15.9891Z"/><path fill="#fff" d="M180.296 16.1364C181.799 16.1364 182.86 17.0204 182.86 17.7718C182.86 18.1107 182.58 18.4348 182.167 18.5969C181.799 18.7295 181.622 18.5969 181.549 18.3759L181.386 17.7276C181.224 17.0941 180.915 16.7405 180.34 16.7405C179.25 16.7405 178.558 17.8749 178.558 19.5693C178.558 21.4551 179.412 22.6338 180.679 22.6338C181.372 22.6338 182.108 22.3391 182.55 21.8087L182.904 22.1476C182.285 22.9579 181.151 23.5325 179.943 23.5325C178.042 23.5325 176.701 22.0739 176.701 19.8787C176.701 17.6245 178.116 16.1364 180.296 16.1364Z"/><path fill="#fff" d="M186.9 16.1364C188.609 16.1364 189.582 17.0204 189.582 18.8326V22.3833C189.582 22.5454 189.626 22.6927 189.758 22.7369L190.48 22.9579V23.1937L187.858 23.5325V22.4717C187.475 23.12 186.576 23.5325 185.707 23.5325C184.572 23.5325 183.762 22.8106 183.762 21.7498C183.762 20.5859 184.72 19.9081 186.429 19.4809L187.828 19.142V18.5085C187.828 17.3445 187.49 16.7405 186.738 16.7405C186.193 16.7405 186.001 17.0941 185.839 17.7276L185.663 18.3759C185.589 18.5969 185.412 18.7295 185.059 18.5969C184.631 18.4348 184.351 18.1107 184.351 17.7718C184.351 17.0204 185.456 16.1364 186.9 16.1364ZM187.814 19.6577L186.944 19.9081C186.06 20.1881 185.559 20.689 185.559 21.4699C185.559 22.2949 186.016 22.6633 186.591 22.6633C187.033 22.6633 187.548 22.3833 187.828 21.9413L187.814 19.6577Z"/><path fill="#fff" d="M198.228 12.7183V22.3833C198.228 22.5454 198.273 22.6927 198.405 22.7369L199.127 22.9579V23.1937L196.49 23.5325V22.5159C195.974 23.1347 195.105 23.5325 194.309 23.5325C192.541 23.5325 191.377 22.0887 191.377 19.9229C191.377 17.6539 192.718 16.1364 194.737 16.1364C195.355 16.1364 196.048 16.3132 196.475 16.5637V14.0885C196.475 13.9264 196.431 13.7791 196.298 13.7496L195.576 13.5875V13.3518L198.228 12.7183ZM195.208 16.7405C194.074 16.7405 193.322 17.9633 193.322 19.7608C193.322 21.4846 194.029 22.6338 195.075 22.6338C195.591 22.6338 196.151 22.3833 196.475 21.9855V17.3887C196.225 16.9909 195.709 16.7405 195.208 16.7405Z"/><path fill="#fff" d="M204.06 12.9098H205.857C205.857 13.2192 205.813 13.3223 205.666 13.4255L203.073 15.4439L202.69 15.1493L204.06 12.9098ZM203.5 16.1364C205.342 16.1364 206.535 17.3445 206.535 19.1862C206.55 19.3335 206.52 19.5251 206.491 19.6429H201.997C202.012 21.3962 202.69 22.5749 204.03 22.5749C204.811 22.5749 205.739 22.0887 206.24 21.2783L206.623 21.5583C206.019 22.6927 204.826 23.5325 203.367 23.5325C201.452 23.5325 200.082 22.0739 200.082 19.8639C200.082 17.6392 201.452 16.1364 203.5 16.1364ZM203.515 16.7405C202.704 16.7405 202.13 17.6834 202.027 19.0978L204.561 18.9357C204.693 18.9063 204.723 18.8031 204.723 18.5232C204.723 17.5361 204.237 16.7405 203.515 16.7405Z"/><path fill="#fff" d="M207.604 16.7847L210.226 16.1511V17.1972C210.712 16.6079 211.537 16.1364 212.348 16.1364C212.996 16.1364 213.806 16.4163 214.16 17.3151C214.808 16.5489 215.663 16.1364 216.414 16.1364C217.445 16.1364 218.418 16.7847 218.418 18.1843V22.6043C218.418 22.7369 218.433 22.8548 218.58 22.899L219.302 23.1495V23.3999H215.913V23.1495L216.473 22.9137C216.606 22.8548 216.65 22.7517 216.65 22.6043V18.7147C216.65 17.6539 216.355 17.153 215.56 17.153C215.073 17.153 214.573 17.4182 214.278 17.7718C214.322 17.9633 214.352 18.1696 214.352 18.3906V22.6043C214.352 22.7369 214.366 22.8548 214.514 22.899L215.118 23.1495V23.3999H211.817L211.803 23.1495L212.392 22.9137C212.539 22.8401 212.583 22.7517 212.583 22.6043V18.7147C212.583 17.6539 212.274 17.153 211.493 17.153C211.007 17.153 210.55 17.4182 210.27 17.7571V22.6043C210.27 22.7369 210.3 22.8401 210.447 22.899L211.051 23.1495V23.3999H207.604V23.1495L208.326 22.9137C208.473 22.8548 208.502 22.7517 208.502 22.6043V17.5213C208.502 17.374 208.488 17.2119 208.34 17.1825L207.604 17.0351V16.7847Z"/><path fill="#fff" d="M221.86 12.9687C222.494 12.9687 222.965 13.4402 222.965 14.0148C222.965 14.5894 222.494 15.0903 221.86 15.0903C221.242 15.0903 220.77 14.5894 220.77 14.0148C220.77 13.4402 221.242 12.9687 221.86 12.9687ZM222.759 16.1659V22.6043C222.759 22.7369 222.803 22.8401 222.936 22.899L223.673 23.1495V23.3999H220.107V23.1495L220.814 22.9137C220.976 22.8548 220.991 22.7369 220.991 22.6043V17.4919C220.991 17.374 220.976 17.2119 220.814 17.1825L220.107 17.0351V16.7847L222.759 16.1659Z"/><path fill="#fff" d="M228.223 16.1364C229.726 16.1364 230.786 17.0204 230.786 17.7718C230.786 18.1107 230.506 18.4348 230.094 18.5969C229.726 18.7295 229.549 18.5969 229.475 18.3759L229.313 17.7276C229.151 17.0941 228.842 16.7405 228.267 16.7405C227.177 16.7405 226.484 17.8749 226.484 19.5693C226.484 21.4551 227.339 22.6338 228.606 22.6338C229.298 22.6338 230.035 22.3391 230.477 21.8087L230.831 22.1476C230.212 22.9579 229.077 23.5325 227.869 23.5325C225.969 23.5325 224.628 22.0739 224.628 19.8787C224.628 17.6245 226.042 16.1364 228.223 16.1364Z"/><path fill="#fff" d="M235.549 16.1364C237.788 16.1364 239.261 17.6097 239.261 19.8345C239.261 22.0445 237.788 23.5325 235.549 23.5325C233.324 23.5325 231.851 22.0445 231.851 19.8345C231.851 17.6097 233.324 16.1364 235.549 16.1364ZM235.549 16.7552C234.488 16.7552 233.766 17.9191 233.766 19.8345C233.766 21.7351 234.473 22.9137 235.549 22.9137C236.624 22.9137 237.346 21.7351 237.346 19.8345C237.346 17.9191 236.624 16.7552 235.549 16.7552Z"/><path fill="#fff" d="M73.4555 28.3183V37.9833C73.4555 38.1454 73.4997 38.2927 73.6323 38.3369L74.3542 38.5579V38.7937L71.717 39.1325V38.1159C71.2013 38.7347 70.332 39.1325 69.5364 39.1325C67.7684 39.1325 66.6045 37.6887 66.6045 35.5229C66.6045 33.2539 67.9452 31.7364 69.9637 31.7364C70.5825 31.7364 71.275 31.9132 71.7022 32.1637V29.6885C71.7022 29.5264 71.658 29.3791 71.5254 29.3496L70.8035 29.1875V28.9518L73.4555 28.3183ZM70.4352 32.3405C69.3007 32.3405 68.5493 33.5633 68.5493 35.3608C68.5493 37.0846 69.2565 38.2338 70.3026 38.2338C70.8182 38.2338 71.3781 37.9833 71.7022 37.5855V32.9887C71.4518 32.5909 70.9361 32.3405 70.4352 32.3405Z"/><path fill="#fff" d="M78.727 31.7364C80.5687 31.7364 81.7621 32.9445 81.7621 34.7862C81.7768 34.9335 81.7474 35.1251 81.7179 35.2429H77.2242C77.239 36.9962 77.9167 38.1749 79.2574 38.1749C80.0383 38.1749 80.9665 37.6887 81.4674 36.8783L81.8505 37.1583C81.2464 38.2927 80.053 39.1325 78.5944 39.1325C76.6791 39.1325 75.3089 37.6739 75.3089 35.4639C75.3089 33.2392 76.6791 31.7364 78.727 31.7364ZM78.7418 32.3405C77.9314 32.3405 77.3568 33.2834 77.2537 34.6978L79.7878 34.5357C79.9204 34.5063 79.9499 34.4031 79.9499 34.1232C79.9499 33.1361 79.4637 32.3405 78.7418 32.3405Z"/><path fill="#fff" d="M90.9023 28.7308L94.6298 37.9244C94.7624 38.2338 94.8361 38.3369 95.0718 38.4106L95.9116 38.7053V38.9999H91.359V38.7053L92.3314 38.4253C92.6114 38.3369 92.5819 38.1749 92.5082 37.9686L91.5653 35.5229H88.4271L87.3958 37.9686C87.3221 38.1749 87.3074 38.3517 87.5726 38.4253L88.5597 38.7053V38.9999H85.3331V38.7053L86.2613 38.3959C86.4676 38.3369 86.5265 38.2338 86.6738 37.9097L90.5487 28.7308H90.9023ZM90.0478 31.5891L88.6776 34.8893H91.3148L90.0478 31.5891Z"/><path fill="#fff" d="M99.8634 38.9999H96.3126V38.7495L97.0198 38.5137C97.1819 38.4548 97.1966 38.3369 97.1966 38.2043V33.1213C97.1966 32.974 97.1819 32.8119 97.0346 32.7825L96.3126 32.6351V32.3847L98.9646 31.7511V33.9169C99.2151 32.7677 99.9223 31.7364 100.909 31.7364C101.985 31.7364 102.412 32.7972 101.808 33.5486C101.617 33.7843 101.543 33.7991 101.337 33.6075C100.909 33.2392 100.63 33.0919 100.291 33.0919C99.4361 33.0919 98.9646 34.1821 98.9646 35.4345V38.2043C98.9646 38.3369 98.9941 38.4401 99.1414 38.499L99.8634 38.7495V38.9999Z"/><path fill="#fff" d="M105.294 29.9684V31.8543H107.371V32.5025H105.294V37.2319C105.294 38.0717 105.618 38.3075 105.972 38.3075C106.428 38.3075 106.944 37.9981 107.342 37.4971L107.651 37.8213C107.003 38.6611 106.325 39.1325 105.353 39.1325C104.602 39.1325 103.541 38.8673 103.541 37.0109V32.5025H102.627V32.0311C103.806 31.7217 103.997 31.4417 104.572 29.9684H105.294Z"/><path fill="#fff" d="M111.676 31.7364C113.517 31.7364 114.711 32.9445 114.711 34.7862C114.725 34.9335 114.696 35.1251 114.666 35.2429H110.173C110.188 36.9962 110.865 38.1749 112.206 38.1749C112.987 38.1749 113.915 37.6887 114.416 36.8783L114.799 37.1583C114.195 38.2927 113.002 39.1325 111.543 39.1325C109.628 39.1325 108.257 37.6739 108.257 35.4639C108.257 33.2392 109.628 31.7364 111.676 31.7364ZM111.69 32.3405C110.88 32.3405 110.305 33.2834 110.202 34.6978L112.736 34.5357C112.869 34.5063 112.898 34.4031 112.898 34.1232C112.898 33.1361 112.412 32.3405 111.69 32.3405Z"/><path fill="#fff" d="M126.558 31.8543V32.1195L125.94 32.2668C125.674 32.3405 125.601 32.4583 125.468 32.753L122.536 40.2817C121.873 41.9319 120.842 42.5212 119.973 42.5212C119.457 42.5212 118.971 42.3002 118.72 41.9761C118.588 41.814 118.529 41.6519 118.529 41.4751C118.529 41.0921 118.853 40.5469 119.118 40.5469C119.206 40.5469 119.295 40.5764 119.354 40.6206L119.928 41.0331C120.164 41.2099 120.415 41.2983 120.65 41.2983C121.181 41.2983 121.682 40.8711 121.991 40.1491L122.33 39.1915L119.766 32.9298C119.634 32.5909 119.545 32.3405 119.28 32.2668L118.676 32.1195V31.8543H122.271V32.1195L121.623 32.2668C121.372 32.3405 121.372 32.4878 121.431 32.6351L123.14 37.0109L124.79 32.7677C124.879 32.5025 124.82 32.311 124.599 32.2668L123.892 32.1195V31.8543H126.558Z"/><path fill="#fff" d="M130.532 28.7308H135.07C138.046 28.7308 140.315 30.6756 140.315 33.8727C140.315 37.0846 138.046 38.9999 135.07 38.9999H130.532V38.7053L131.372 38.4106C131.505 38.3517 131.578 38.2043 131.578 38.057V29.6737C131.578 29.5117 131.505 29.3791 131.357 29.3201L130.532 29.0255V28.7308ZM134.79 29.4085H133.611V38.3222H134.79C136.794 38.3222 138.135 36.6131 138.135 33.8727C138.135 31.1323 136.794 29.4085 134.79 29.4085Z"/><path fill="#fff" d="M143.201 28.5687C143.835 28.5687 144.306 29.0402 144.306 29.6148C144.306 30.1894 143.835 30.6903 143.201 30.6903C142.582 30.6903 142.111 30.1894 142.111 29.6148C142.111 29.0402 142.582 28.5687 143.201 28.5687ZM144.1 31.7659V38.2043C144.1 38.3369 144.144 38.4401 144.277 38.499L145.013 38.7495V38.9999H141.448V38.7495L142.155 38.5137C142.317 38.4548 142.332 38.3369 142.332 38.2043V33.0919C142.332 32.974 142.317 32.8119 142.155 32.7825L141.448 32.6351V32.3847L144.1 31.7659Z"/><path fill="#fff" d="M148.783 31.7364C149.49 31.7364 150.315 31.9132 150.978 32.3257V33.8138H150.285L150.153 33.2539C150.005 32.5909 149.401 32.3405 148.886 32.3405C148.341 32.3405 147.84 32.6204 147.84 33.2834C147.84 33.9611 148.355 34.2558 148.945 34.5357L149.637 34.8893C150.551 35.3461 151.346 35.847 151.346 37.0404C151.346 38.3517 150.3 39.1325 148.562 39.1325C147.501 39.1325 146.749 38.8821 146.042 38.4843V36.8047L146.617 36.731L146.838 37.4087C147.103 38.2191 147.678 38.5285 148.399 38.5285C149.151 38.5285 149.667 38.1159 149.667 37.4382C149.667 36.8194 149.151 36.51 148.65 36.2448L147.899 35.847C146.469 35.1545 146.175 34.4621 146.175 33.7254C146.175 32.3405 147.398 31.7364 148.783 31.7364Z"/><path fill="#fff" d="M155.933 31.7364C157.775 31.7364 158.968 32.9445 158.968 34.7862C158.983 34.9335 158.953 35.1251 158.924 35.2429H154.43C154.445 36.9962 155.123 38.1749 156.464 38.1749C157.244 38.1749 158.173 37.6887 158.674 36.8783L159.057 37.1583C158.453 38.2927 157.259 39.1325 155.801 39.1325C153.885 39.1325 152.515 37.6739 152.515 35.4639C152.515 33.2392 153.885 31.7364 155.933 31.7364ZM155.948 32.3405C155.138 32.3405 154.563 33.2834 154.46 34.6978L156.994 34.5357C157.127 34.5063 157.156 34.4031 157.156 34.1232C157.156 33.1361 156.67 32.3405 155.948 32.3405Z"/><path fill="#fff" d="M165.886 28.6571L166.387 28.8634C166.078 29.9979 165.532 30.543 164.707 30.543C164.472 30.543 164.221 30.5135 163.971 30.3957C162.895 29.9242 162.763 29.8505 162.556 29.8505C162.232 29.8505 161.996 30.101 161.805 30.6167L161.274 30.4104C161.525 29.3054 162.055 28.775 162.925 28.775C163.234 28.775 163.529 28.8487 163.868 28.996C164.796 29.4233 164.914 29.4527 165.105 29.4527C165.4 29.4527 165.65 29.2023 165.886 28.6571ZM164.884 31.7364C165.901 31.7364 166.858 32.3994 166.858 33.8433V38.2043C166.858 38.3369 166.888 38.4548 167.035 38.499L167.757 38.7495V38.9999H164.295V38.7495L164.914 38.5137C165.076 38.4548 165.105 38.3517 165.105 38.2043V34.3147C165.105 33.2539 164.81 32.753 164.03 32.753C163.543 32.753 162.998 33.0035 162.704 33.3571V38.2043C162.704 38.3369 162.733 38.4401 162.88 38.499L163.514 38.7495V38.9999H160.037V38.7495L160.759 38.5137C160.906 38.4548 160.936 38.3517 160.936 38.2043V33.1213C160.936 32.974 160.921 32.8119 160.774 32.7825L160.037 32.6351V32.3847L162.659 31.7659V32.7972C163.16 32.1784 164.074 31.7364 164.884 31.7364Z"/><path fill="#fff" d="M172.385 31.7364C174.625 31.7364 176.098 33.2097 176.098 35.4345C176.098 37.6445 174.625 39.1325 172.385 39.1325C170.16 39.1325 168.687 37.6445 168.687 35.4345C168.687 33.2097 170.16 31.7364 172.385 31.7364ZM172.385 32.3552C171.324 32.3552 170.602 33.5191 170.602 35.4345C170.602 37.3351 171.31 38.5137 172.385 38.5137C173.461 38.5137 174.183 37.3351 174.183 35.4345C174.183 33.5191 173.461 32.3552 172.385 32.3552Z"/></svg>