<svg width="24" height="24" viewBox="0 0 24 24" fill="none" xmlns="http://www.w3.org/2000/svg">
<path fill-rule="evenodd" clip-rule="evenodd" d="M14.9649 14.2551H15.7549L20.7449 19.2551L19.2549 20.7451L14.2549 15.7551V14.9651L13.9849 14.6851C12.8449 15.6651 11.3649 16.2551 9.75488 16.2551C6.16488 16.2551 3.25488 13.3451 3.25488 9.75513C3.25488 6.16513 6.16488 3.25513 9.75488 3.25513C13.3449 3.25513 16.2549 6.16513 16.2549 9.75513C16.2549 11.3651 15.6649 12.8451 14.6849 13.9851L14.9649 14.2551ZM5.25488 9.75513C5.25488 12.2451 7.26488 14.2551 9.75489 14.2551C12.2449 14.2551 14.2549 12.2451 14.2549 9.75513C14.2549 7.26513 12.2449 5.25513 9.75489 5.25513C7.26488 5.25513 5.25488 7.26513 5.25488 9.75513Z" fill="#F9FAFB"/>
</svg>
